<svg xmlns="http://www.w3.org/2000/svg" viewBox="0 0 64 64">
  <defs>
    <linearGradient id="g1" x1="0%" y1="0%" x2="100%" y2="100%">
      <stop offset="0%" stop-color="#0ea5e9"/>
      <stop offset="100%" stop-color="#8b5cf6"/>
    </linearGradient>
  </defs>
  <!-- Background -->
  <rect width="64" height="64" rx="14" fill="#0f172a"/>
  <!-- Gradient border -->
  <rect x="2" y="2" width="60" height="60" rx="12" fill="none" stroke="url(#g1)" stroke-width="2.5"/>
  <!-- K -->
  <path d="M10 16v32M10 32l12-16M10 32l12 16" fill="none" stroke="#0ea5e9" stroke-width="5" stroke-linecap="round" stroke-linejoin="round"/>
  <!-- B -->
  <path d="M27 16v32M27 16h6c4 0 7 3 7 8s-3 8-7 8h-6M27 32h6c4 0 7 3 7 8s-3 8-7 8h-6" fill="none" stroke="#6366f1" stroke-width="5" stroke-linecap="round" stroke-linejoin="round"/>
  <!-- N -->
  <path d="M46 48V16l12 32V16" fill="none" stroke="#8b5cf6" stroke-width="5" stroke-linecap="round" stroke-linejoin="round"/>
</svg>
